<svg width="512" height="512" viewBox="0 0 512 512" fill="none" xmlns="http://www.w3.org/2000/svg">
  <rect width="512" height="512" rx="112" fill="#14365D"/>
  <path d="M128 337C190 337 233 303 248 250C190 247 141 271 120 319C117 327 120 337 128 337Z" fill="#7BC99A"/>
  <path d="M384 337C322 337 279 303 264 250C322 247 371 271 392 319C395 327 392 337 384 337Z" fill="#2F6F53"/>
  <path d="M256 353V161" stroke="white" stroke-width="28" stroke-linecap="round"/>
  <path d="M207 191C225 156 249 137 282 126C291 123 300 130 298 140C289 183 263 212 218 222C209 224 202 199 207 191Z" fill="white"/>
  <path d="M185 372H327" stroke="white" stroke-width="28" stroke-linecap="round"/>
  <path d="M171 405H341" stroke="#7BC99A" stroke-width="22" stroke-linecap="round"/>
  <path d="M156 266H356" stroke="#C47B27" stroke-width="18" stroke-linecap="round" stroke-dasharray="1 34"/>
</svg>
